<?xml version="1.0" standalone="no"?>
<!DOCTYPE svg PUBLIC "-//W3C//DTD SVG 20010904//EN"
 "http://www.w3.org/TR/2001/REC-SVG-20010904/DTD/svg10.dtd">
<svg version="1.0" xmlns="http://www.w3.org/2000/svg"
 width="256.000000pt" height="256.000000pt" viewBox="0 0 256.000000 256.000000"
 preserveAspectRatio="xMidYMid meet">

<g transform="translate(0.000000,256.000000) scale(0.100000,-0.100000)"
fill="#000000" stroke="none">
<path d="M463 2233 c9 -2 25 -2 35 0 9 3 1 5 -18 5 -19 0 -27 -2 -17 -5z"/>
<path d="M2063 2233 c9 -2 25 -2 35 0 9 3 1 5 -18 5 -19 0 -27 -2 -17 -5z"/>
<path d="M386 2169 l-26 -31 0 -852 c0 -844 0 -854 20 -879 12 -15 38 -31 58
-37 51 -14 1623 -14 1674 0 20 6 46 22 58 37 20 25 20 35 20 880 l0 855 -29
29 -29 29 -860 0 -860 0 -26 -31z m1691 -54 c12 -3 25 -14 28 -25 9 -29 -5
-131 -17 -124 -6 4 -55 7 -109 8 -82 1 -99 -2 -99 -14 -1 -11 -4 -10 -16 5
-12 16 -17 17 -23 6 -7 -11 -11 -10 -22 2 -13 14 -49 12 -49 -3 0 -4 -16 -4
-35 0 -21 5 -35 4 -35 -2 0 -5 -4 -7 -10 -3 -5 3 -7 13 -4 23 5 14 4 15 -5 2
-12 -17 -31 -20 -48 -7 -7 5 -19 7 -28 3 -8 -3 -14 -1 -12 5 1 6 -14 12 -34
13 -20 2 -56 12 -81 24 -24 12 -52 22 -61 22 -9 0 -17 4 -17 9 0 12 -53 23
-120 26 -37 2 -68 -4 -94 -16 -22 -11 -48 -19 -58 -19 -10 0 -18 -5 -18 -10 0
-6 -6 -10 -12 -8 -15 2 -88 -21 -104 -33 -6 -5 -14 -6 -18 -2 -3 4 -13 -2 -21
-13 -15 -19 -15 -19 -8 0 5 16 3 18 -12 12 -11 -4 -22 -1 -28 6 -6 9 -7 8 -3
-4 7 -23 -10 -33 -22 -12 -9 16 -11 15 -20 -3 -6 -11 -10 -22 -9 -25 1 -2 -5
4 -15 14 -19 21 -32 24 -25 5 3 -7 -3 -13 -13 -13 -10 0 -16 4 -14 8 9 15 -31
8 -56 -9 -25 -16 -25 -16 -7 3 9 12 17 25 17 30 0 5 -4 3 -9 -4 -5 -9 -38 -14
-105 -16 -81 -2 -96 0 -91 12 4 12 3 13 -9 3 -8 -7 -20 -10 -26 -6 -5 3 -10 1
-10 -4 0 -12 -26 -15 -33 -3 -11 17 -16 108 -7 122 8 13 57 16 302 20 350 6
1294 3 1325 -5z m-373 -322 l421 -238 -423 -3 c-232 -1 -612 -1 -844 0 l-422
3 315 177 c173 97 361 204 419 237 58 33 107 61 109 61 3 0 194 -107 425 -237z
m-1099 167 c-3 -5 -11 -10 -16 -10 -6 0 -7 5 -4 10 3 6 11 10 16 10 6 0 7 -4
4 -10z m160 -10 c-3 -5 -11 -10 -16 -10 -6 0 -7 5 -4 10 3 6 11 10 16 10 6 0
7 -4 4 -10z m-21 -465 c-1 -25 3 -43 12 -48 8 -5 12 -12 9 -18 -4 -5 -4 -13
-1 -18 3 -4 8 -181 10 -392 3 -211 8 -403 12 -426 l6 -43 462 2 461 3 -434 2
c-300 2 -438 7 -448 14 -10 9 -13 86 -13 388 0 316 -2 380 -15 397 -22 29 -18
34 22 34 20 0 45 7 55 17 17 15 19 15 36 0 37 -33 120 -11 106 28 -4 8 -1 15
5 15 8 0 10 14 7 40 -4 35 -2 41 19 46 13 3 34 4 46 2 21 -3 24 -8 23 -43 -1
-22 2 -43 7 -46 5 -3 10 -17 11 -31 2 -22 7 -25 43 -27 22 0 54 6 72 16 30 16
33 16 51 0 36 -32 120 -9 105 29 -3 8 0 14 6 14 8 0 10 14 7 40 -4 35 -2 41
19 46 13 3 34 4 46 2 21 -3 24 -8 21 -45 -1 -26 2 -43 8 -43 6 0 10 -6 9 -12
-5 -39 1 -45 46 -46 27 -1 55 4 69 13 21 14 25 14 36 0 7 -8 25 -15 41 -15
l29 0 2 -357 c1 -197 1 -382 -1 -411 -3 -58 12 -70 25 -20 9 38 12 773 3 803
-3 11 -4 14 -2 7 4 -10 8 -10 18 -2 8 6 11 18 8 26 -3 8 0 14 6 14 7 0 10 16
9 43 l-3 42 45 0 45 0 -3 -42 c-1 -27 2 -43 9 -43 6 0 9 -7 6 -15 -4 -8 -2
-17 3 -20 6 -4 3 -17 -6 -31 -9 -13 -14 -27 -10 -31 3 -3 7 0 7 8 1 8 5 -4 10
-26 4 -22 8 -186 9 -365 0 -269 3 -328 15 -344 8 -11 15 -28 15 -37 0 -13 9
-19 31 -21 28 -3 34 -9 52 -56 15 -41 24 -52 41 -52 12 0 31 -6 41 -14 17 -12
16 -14 -21 -26 -57 -20 -1606 -20 -1653 -1 -25 11 -29 16 -20 27 6 8 24 14 39
14 24 0 31 7 50 55 20 49 26 55 51 55 21 0 29 5 29 18 0 10 7 27 15 38 12 16
14 75 15 350 0 335 4 399 23 387 7 -4 8 0 3 13 -5 10 -8 24 -7 29 2 29 9 112
10 123 1 9 14 12 44 10 l42 -3 -1 -40z m48 -7 c-8 -8 -9 -4 -5 13 4 13 8 18
11 10 2 -7 -1 -18 -6 -23z m206 -3 c-3 -3 -9 2 -12 12 -6 14 -5 15 5 6 7 -7
10 -15 7 -18z m-203 -64 c3 -5 1 -12 -5 -16 -5 -3 -10 1 -10 9 0 18 6 21 15 7z
m202 -13 c-3 -8 -6 -5 -6 6 -1 11 2 17 5 13 3 -3 4 -12 1 -19z m390 0 c-3 -8
-6 -5 -6 6 -1 11 2 17 5 13 3 -3 4 -12 1 -19z"/>
<path d="M1904 1999 c-4 -7 -3 -9 4 -5 5 3 12 0 15 -6 2 -7 7 -10 11 -7 4 3 0
12 -8 18 -11 9 -16 9 -22 0z"/>
<path d="M1708 1993 c7 -3 16 -2 19 1 4 3 -2 6 -13 5 -11 0 -14 -3 -6 -6z"/>
<path d="M1263 1823 c9 -2 25 -2 35 0 9 3 1 5 -18 5 -19 0 -27 -2 -17 -5z"/>
<path d="M1026 1108 c-2 -7 -15 -45 -29 -85 -22 -61 -24 -73 -12 -83 21 -17
45 -5 45 22 1 22 1 22 16 -4 15 -28 47 -37 59 -18 4 6 -3 26 -14 44 l-21 34
31 26 c42 36 50 33 32 -13 -17 -44 -12 -86 12 -95 17 -6 65 13 65 26 0 5 12 0
27 -11 24 -20 28 -20 50 -6 12 9 23 11 23 5 0 -17 38 -11 43 8 4 15 5 15 6 1
1 -19 27 -33 36 -20 3 5 14 7 25 4 14 -4 22 1 28 18 l9 23 6 -23 c4 -15 12
-22 24 -19 13 2 20 17 25 53 4 28 6 56 3 63 -6 18 -32 15 -54 -7 -19 -19 -19
-19 -24 0 -5 19 -37 27 -37 10 0 -6 -18 -1 -39 11 l-39 21 -41 -20 c-23 -12
-44 -17 -47 -12 -11 18 -34 9 -34 -13 -1 -13 -7 -36 -15 -53 -14 -27 -15 -28
-11 -5 2 14 8 35 12 48 5 18 2 24 -14 29 -12 3 -22 15 -24 26 -4 27 -34 34
-58 12 -16 -14 -18 -14 -23 0 -8 18 -36 20 -41 3z m32 -10 c8 -8 8 -17 0 -32
-7 -13 1 -8 19 12 33 34 63 42 63 17 0 -8 -4 -15 -9 -15 -5 0 -23 -13 -41 -30
l-32 -30 21 -36 c26 -43 26 -44 2 -44 -14 0 -23 11 -32 38 l-12 37 -12 -35
c-10 -30 -30 -46 -37 -30 -3 8 47 160 53 160 3 0 10 -5 17 -12z m289 -30 c4
-7 15 -13 23 -13 10 0 14 -9 13 -30 l-2 -30 14 33 c14 29 44 48 31 20 -3 -7
-11 -32 -18 -55 -17 -60 -46 -54 -49 10 -1 14 -5 8 -11 -15 -6 -21 -14 -38
-19 -38 -14 0 -11 27 6 60 15 29 11 60 -7 60 -5 0 -7 -4 -4 -9 8 -12 -3 -41
-15 -41 -5 0 -9 7 -9 15 0 20 -10 19 -26 -2 -29 -39 -8 -83 24 -51 8 8 12 8
12 1 0 -18 -28 -35 -52 -31 -17 2 -24 11 -26 30 -4 37 14 67 51 83 40 18 54
18 64 3z m-172 -25 c-4 -10 -9 -33 -12 -52 -9 -52 19 -35 37 22 8 26 19 47 24
47 12 0 -1 -59 -19 -87 -18 -27 -62 -31 -72 -7 -9 24 15 94 33 94 11 0 14 -5
9 -17z m331 -14 c-3 -17 -6 -42 -6 -55 0 -15 -6 -24 -15 -24 -8 0 -15 9 -15
19 0 30 -19 35 -26 6 -7 -30 -20 -33 -27 -5 -3 12 -1 18 5 14 5 -4 8 4 6 17
-2 14 2 23 8 22 7 -1 20 7 29 17 29 32 49 26 41 -11z m-187 -14 c7 4 8 0 5
-10 -4 -9 -9 -14 -12 -11 -2 3 -13 1 -23 -5 -20 -10 -24 -3 -13 25 5 13 10 14
20 5 7 -6 18 -8 23 -4z"/>
<path d="M1133 860 c-6 -24 -10 -25 -29 -5 -20 19 -123 19 -131 -1 -4 -11 -8
-11 -20 1 -16 16 -70 20 -92 6 -8 -5 -11 -16 -7 -29 4 -12 2 -30 -3 -41 -23
-43 20 -71 70 -46 18 10 30 11 34 5 13 -21 32 -8 52 34 18 37 19 45 8 50 -11
4 -18 -7 -26 -39 -6 -25 -15 -45 -20 -45 -12 0 -11 25 2 70 11 37 12 37 64 39
34 0 57 -4 64 -13 9 -10 9 -16 1 -21 -6 -4 -8 -15 -5 -24 8 -27 -28 -54 -65
-49 -34 5 -41 -7 -8 -15 11 -3 33 0 49 8 23 13 29 13 39 0 7 -8 16 -12 21 -9
5 3 27 6 49 6 22 0 43 5 46 10 4 6 9 5 14 -2 11 -18 59 -15 78 3 14 15 16 15
27 0 18 -24 40 -10 53 35 7 22 19 43 27 46 19 7 19 4 0 -42 -15 -34 -15 -38 1
-49 19 -14 66 -18 77 -7 9 10 66 13 72 5 9 -16 67 2 74 22 8 20 8 20 14 -2 4
-15 12 -22 24 -19 13 2 20 17 25 53 4 28 6 56 3 63 -7 18 -32 15 -55 -8 -19
-19 -20 -19 -20 -1 0 16 -7 19 -46 18 -32 0 -47 -5 -51 -16 -25 -71 -31 -80
-54 -74 l-23 6 23 9 c14 5 21 14 18 22 -3 8 1 17 9 20 8 3 14 12 14 21 0 14
-19 16 -157 13 l-158 -3 -15 -42 c-9 -28 -20 -43 -32 -43 -16 0 -16 3 -2 36 8
20 13 43 10 50 -8 21 -37 17 -43 -6z m31 1 c3 -5 -1 -25 -9 -45 -19 -45 -19
-46 5 -46 11 0 20 -4 20 -10 0 -5 -16 -10 -36 -10 -24 0 -34 4 -32 13 2 6 10
33 18 60 14 46 23 56 34 38z m-218 -41 c1 -44 -21 -70 -57 -70 -37 0 -43 13
-25 49 11 21 12 31 4 33 -26 9 6 29 40 26 35 -3 37 -5 38 -38z m300 28 c-3 -7
-11 -32 -18 -55 -13 -47 -28 -57 -28 -19 0 37 21 86 37 86 8 0 12 -6 9 -12z
m94 -3 c19 -23 -11 -82 -45 -91 -53 -13 -70 18 -40 76 12 23 23 30 44 30 16 0
34 -7 41 -15z m163 5 c-23 -9 -32 -30 -13 -30 6 0 10 -4 10 -10 0 -5 -8 -10
-19 -10 -11 0 -21 -9 -24 -21 -5 -18 -2 -20 19 -15 14 4 24 2 24 -4 0 -5 -18
-10 -40 -10 l-39 0 14 41 c20 55 19 61 -7 57 -17 -2 -26 -15 -37 -50 -16 -53
-41 -66 -38 -19 1 16 5 27 8 25 4 -2 9 5 12 16 3 13 0 20 -9 20 -8 0 -14 5
-14 10 0 6 35 10 88 9 62 0 81 -3 65 -9z m72 0 c4 -6 13 -5 25 2 32 20 36 -1
5 -27 -26 -21 -29 -26 -17 -44 15 -26 15 -31 -2 -31 -8 0 -18 10 -22 22 l-7
23 -8 -23 c-5 -12 -13 -22 -19 -22 -13 0 -13 4 7 61 18 49 26 58 38 39z m131
-21 c-3 -17 -6 -42 -6 -55 0 -15 -6 -24 -15 -24 -8 0 -15 9 -15 19 0 30 -19
35 -26 6 -3 -14 -11 -25 -16 -25 -17 0 2 53 30 83 36 38 56 36 48 -4z m-586
-14 c0 -8 -4 -15 -10 -15 -5 0 -7 7 -4 15 4 8 8 15 10 15 2 0 4 -7 4 -15z
m503 -16 c-11 -22 -18 -28 -26 -20 -7 7 -5 16 8 31 27 30 36 24 18 -11z"/>
<path d="M910 835 c-14 -16 -3 -20 19 -6 8 5 9 11 3 15 -5 3 -15 -1 -22 -9z"/>
<path d="M886 784 c-9 -22 -8 -23 13 -17 27 7 36 33 12 33 -10 0 -22 -7 -25
-16z"/>
<path d="M1290 830 c-20 -20 -28 -70 -12 -70 15 0 40 34 47 63 9 33 -6 36 -35
7z m23 -20 c-3 -10 -11 -25 -19 -31 -11 -9 -14 -8 -14 8 0 19 17 43 31 43 4 0
5 -9 2 -20z"/>
<path d="M1060 835 c-14 -16 -3 -20 19 -6 8 5 9 11 3 15 -5 3 -15 -1 -22 -9z"/>
<path d="M1036 784 c-9 -22 -8 -23 13 -17 27 7 36 33 12 33 -10 0 -22 -7 -25
-16z"/>
<path d="M142 377 c3 -152 3 -154 32 -191 16 -21 47 -47 70 -57 39 -18 86 -19
1036 -19 950 0 997 1 1036 19 23 10 54 36 70 57 29 37 29 39 32 191 2 104 0
153 -7 153 -7 0 -11 -41 -11 -118 0 -146 -18 -194 -90 -229 l-44 -23 -986 0
-986 0 -44 23 c-72 35 -90 83 -90 229 0 77 -4 118 -11 118 -7 0 -9 -49 -7
-153z"/>
</g>
</svg>
